<svg width="67" height="28" viewBox="0 0 67 28" fill="none" xmlns="http://www.w3.org/2000/svg">
<g clip-path="url(#clip0)">
<path d="M9.06171 21.7713V15.0413H2.46448V21.7713H0V6.24792H2.46448V12.6694H9.06171V6.24792H11.5072V21.7713H9.06171Z" fill="#434343"/>
<path d="M63.66 21.7714L60.6647 16.3141H57.6504V21.8099H55.167V6.38293H61.1955C62.5062 6.3829 63.7639 6.9099 64.6943 7.84907C65.6247 8.78824 66.1524 10.0634 66.1624 11.3967C66.1468 12.3359 65.8672 13.2508 65.3566 14.0334C64.8459 14.816 64.1256 15.4334 63.2808 15.8127L62.9585 15.9862L66.3519 21.7714H63.66ZM57.6315 14.0579H61.1955C61.5408 14.043 61.8799 13.9588 62.193 13.8099C62.5061 13.661 62.7871 13.4505 63.0198 13.1905C63.2525 12.9305 63.4322 12.6262 63.5486 12.2951C63.665 11.9641 63.7157 11.6128 63.6979 11.2617C63.7184 10.5642 63.4667 9.88678 62.9979 9.37735C62.529 8.86792 61.8811 8.56787 61.1955 8.54271H57.6315V14.0579Z" fill="#434343"/>
<path d="M31.6782 28L25.0809 9.0055L20.7017 21.7713H18.0098L23.3558 6.24792H26.7682L34.3891 28H31.6782Z" fill="#434343"/>
<path d="M34.9771 0L41.5743 19.0138L45.9725 6.24793H48.6455L43.2995 21.7713H39.8871L32.2852 0H34.9771Z" fill="#434343"/>
</g>
<defs>
<clipPath id="clip0">
<rect width="66.3704" height="28" fill="white"/>
</clipPath>
</defs>
</svg>
